<svg xmlns="http://www.w3.org/2000/svg" viewBox="0 0 64 64" width="64" height="64" fill="none">
  <!-- Outer circle/shield with a gradient background -->
  <circle cx="32" cy="32" r="30" fill="#f97316" fill-opacity="0.1" stroke="#f97316" stroke-width="2" />
  <!-- Beaker/Flask representing Lab -->
  <path d="M20 48h24c2 0 3.5-1.5 3.5-3.5 0-1.5-.8-2.8-2.1-3.4L37 28V18h2c1.1 0 2-.9 2-2s-.9-2-2-2H25c-1.1 0-2 .9-2 2s.9 2 2 2h2v10l-8.4 13.1c-1.3.6-2.1 1.9-2.1 3.4 0 2 1.5 3.5 3.5 3.5z" fill="#f97316" />
  <!-- DNA Helix overlay representing MetroLab -->
  <path d="M28 26c4 0 6 4 10 4s6-4 10-4" stroke="#10b981" stroke-width="3" stroke-linecap="round" />
  <path d="M28 34c4 0 6-4 10-4s6 4 10 4" stroke="#10b981" stroke-width="3" stroke-linecap="round" />
  <!-- Small bubbles/cells floating up -->
  <circle cx="32" cy="20" r="3" fill="#10b981" />
  <circle cx="28" cy="14" r="2" fill="#f97316" />
  <circle cx="36" cy="10" r="1.5" fill="#10b981" />
</svg>